<svg width="51" height="50" viewBox="0 0 51 50" fill="none" xmlns="http://www.w3.org/2000/svg">
<g id="communi-icon">
<path id="Vector" d="M9.875 32.8125V31.25H6.75V32.8125C6.75 35.7133 7.90234 38.4953 9.95352 40.5465C12.0047 42.5977 14.7867 43.75 17.6875 43.75H22.375V40.625H17.6875C15.6155 40.625 13.6284 39.8019 12.1632 38.3368C10.6981 36.8716 9.875 34.8845 9.875 32.8125ZM38 17.1875V18.75H41.125V17.1875C41.125 14.2867 39.9727 11.5047 37.9215 9.45352C35.8703 7.40234 33.0883 6.25 30.1875 6.25H25.5V9.375H30.1875C31.2135 9.375 32.2294 9.57708 33.1772 9.96969C34.1251 10.3623 34.9863 10.9378 35.7118 11.6632C36.4372 12.3887 37.0127 13.2499 37.4053 14.1978C37.7979 15.1456 38 16.1616 38 17.1875ZM17.6875 17.1875H8.3125C7.0693 17.1875 5.87701 17.6814 4.99794 18.5604C4.11886 19.4395 3.625 20.6318 3.625 21.875V25H6.75V21.875C6.75 21.4606 6.91462 21.0632 7.20765 20.7701C7.50067 20.4771 7.8981 20.3125 8.3125 20.3125H17.6875C18.1019 20.3125 18.4993 20.4771 18.7924 20.7701C19.0854 21.0632 19.25 21.4606 19.25 21.875V25H22.375V21.875C22.375 20.6318 21.8811 19.4395 21.0021 18.5604C20.123 17.6814 18.9307 17.1875 17.6875 17.1875ZM13 15.625C14.2361 15.625 15.4445 15.2584 16.4723 14.5717C17.5001 13.8849 18.3012 12.9088 18.7742 11.7668C19.2473 10.6247 19.3711 9.36807 19.1299 8.15569C18.8888 6.94331 18.2935 5.82966 17.4194 4.95559C16.5453 4.08151 15.4317 3.48625 14.2193 3.24509C13.0069 3.00394 11.7503 3.12771 10.6082 3.60076C9.46619 4.0738 8.49007 4.87488 7.80331 5.90269C7.11656 6.9305 6.75 8.13887 6.75 9.375C6.75 11.0326 7.40848 12.6223 8.58058 13.7944C9.75268 14.9665 11.3424 15.625 13 15.625ZM13 6.25C13.6181 6.25 14.2223 6.43328 14.7362 6.77666C15.2501 7.12004 15.6506 7.6081 15.8871 8.17912C16.1236 8.75014 16.1855 9.37847 16.065 9.98466C15.9444 10.5909 15.6467 11.1477 15.2097 11.5847C14.7727 12.0218 14.2158 12.3194 13.6097 12.44C13.0035 12.5605 12.3751 12.4987 11.8041 12.2621C11.2331 12.0256 10.745 11.6251 10.4017 11.1112C10.0583 10.5973 9.875 9.99307 9.875 9.375C9.875 8.5462 10.2042 7.75135 10.7903 7.16529C11.3763 6.57924 12.1712 6.25 13 6.25ZM42.6875 39.0625H33.3125C32.0693 39.0625 30.877 39.5564 29.9979 40.4354C29.1189 41.3145 28.625 42.5068 28.625 43.75V46.875H31.75V43.75C31.75 43.3356 31.9146 42.9382 32.2076 42.6451C32.5007 42.3521 32.8981 42.1875 33.3125 42.1875H42.6875C43.1019 42.1875 43.4993 42.3521 43.7924 42.6451C44.0854 42.9382 44.25 43.3356 44.25 43.75V46.875H47.375V43.75C47.375 42.5068 46.8811 41.3145 46.0021 40.4354C45.123 39.5564 43.9307 39.0625 42.6875 39.0625ZM31.75 31.25C31.75 32.4861 32.1166 33.6945 32.8033 34.7223C33.4901 35.7501 34.4662 36.5512 35.6082 37.0243C36.7503 37.4973 38.0069 37.6211 39.2193 37.3799C40.4317 37.1388 41.5453 36.5435 42.4194 35.6694C43.2935 34.7953 43.8888 33.6817 44.1299 32.4693C44.3711 31.2569 44.2473 30.0003 43.7742 28.8582C43.3012 27.7162 42.5001 26.7401 41.4723 26.0533C40.4445 25.3666 39.2361 25 38 25C36.3424 25 34.7527 25.6585 33.5806 26.8306C32.4085 28.0027 31.75 29.5924 31.75 31.25ZM41.125 31.25C41.125 31.8681 40.9417 32.4723 40.5983 32.9862C40.255 33.5001 39.7669 33.9006 39.1959 34.1371C38.6249 34.3737 37.9965 34.4355 37.3903 34.315C36.7842 34.1944 36.2273 33.8967 35.7903 33.4597C35.3533 33.0227 35.0556 32.4659 34.935 31.8597C34.8145 31.2535 34.8764 30.6251 35.1129 30.0541C35.3494 29.4831 35.7499 28.995 36.2638 28.6517C36.7777 28.3083 37.3819 28.125 38 28.125C38.8288 28.125 39.6237 28.4542 40.2097 29.0403C40.7958 29.6263 41.125 30.4212 41.125 31.25Z" fill="#F35500"/>
</g>
</svg>
