<svg width="108" height="52" viewBox="0 0 108 52" fill="none" xmlns="http://www.w3.org/2000/svg">
<g id="consultan-icon">
<g id="Group">
<path id="Vector" d="M20.5 31.3043C26.9959 31.3043 32.2619 25.8636 32.2619 19.1522C32.2619 12.4407 26.9959 7 20.5 7C14.0041 7 8.7381 12.4407 8.7381 19.1522C8.7381 25.8636 14.0041 31.3043 20.5 31.3043Z" stroke="#F35500" stroke-width="3" stroke-linecap="round" stroke-linejoin="round"/>
<path id="Vector_2" d="M1.5 49.9999C1.5 40.652 8.7381 31.3042 20.5 31.3042C32.2619 31.3042 39.5 40.652 39.5 49.9999" stroke="#F35500" stroke-width="3" stroke-linecap="round" stroke-linejoin="round"/>
</g>
<g id="Group_2">
<path id="Vector_3" d="M87.5 31.3043C93.9959 31.3043 99.2619 25.8636 99.2619 19.1522C99.2619 12.4407 93.9959 7 87.5 7C81.0041 7 75.7381 12.4407 75.7381 19.1522C75.7381 25.8636 81.0041 31.3043 87.5 31.3043Z" stroke="#F35500" stroke-width="3" stroke-linecap="round" stroke-linejoin="round"/>
<path id="Vector_4" d="M68.5 49.9999C68.5 40.652 75.7381 31.3042 87.5 31.3042C99.2619 31.3042 106.5 40.652 106.5 49.9999" stroke="#F35500" stroke-width="3" stroke-linecap="round" stroke-linejoin="round"/>
</g>
<path id="Vector_5" d="M68.85 18.5H70.5M64.725 7.775L66.375 6.125M54 3.65V2M43.275 7.775L41.625 6.125M39.15 18.5H37.5M50.7 35H57.3M62.25 18.5C62.2496 17.0127 61.8471 15.5532 61.0852 14.2759C60.3232 12.9986 59.2302 11.951 57.9217 11.244C56.6131 10.537 55.1378 10.1969 53.6519 10.2597C52.1659 10.3225 50.7245 10.7857 49.4803 11.6005C48.2361 12.4153 47.2352 13.5514 46.5837 14.8883C45.9322 16.2253 45.6542 17.7136 45.7792 19.1956C45.9042 20.6777 46.4275 22.0983 47.2937 23.3073C48.1599 24.5163 49.3369 25.4687 50.7 26.0636V30.05H57.3V26.0636C58.7715 25.4212 60.0236 24.3634 60.9028 23.0199C61.7821 21.6764 62.2502 20.1056 62.25 18.5Z" stroke="#F35500" stroke-width="2.66667" stroke-linecap="round" stroke-linejoin="round"/>
</g>
</svg>
