<svg width="51" height="50" viewBox="0 0 51 50" fill="none" xmlns="http://www.w3.org/2000/svg">
<g id="eco-icon" clip-path="url(#clip0_322_31)">
<path id="Vector" d="M6.89974 12.6563C2.80164 16.7615 0.5 22.3248 0.5 28.125C0.5 33.9252 2.80164 39.4885 6.89974 43.5938C11.1816 47.875 16.7762 50 22.3708 50C27.9654 50 33.56 47.875 37.8419 43.5938C48.7185 32.7188 50.5 0 50.5 0C50.5 0 17.7764 1.78125 6.89974 12.6563ZM35 41.625C32.0308 44.5625 26.5589 47 22.3708 47C19.5891 47 12.8804 45.5 12 41.625C14 31 24.5 23.5 29.8719 18.75C19 23.5 14.282 31.5625 9.5 39.5C0.478797 34.5 2.90541 21.0938 8.5 15.5C14.5323 7 34.935 2.5 48.5 2.5C47.0935 14.25 45.4083 33.5 35 41.625Z" fill="#F35500"/>
</g>
<defs>
<clipPath id="clip0_322_31">
<rect width="50" height="50" fill="white" transform="translate(0.5)"/>
</clipPath>
</defs>
</svg>
