<svg width="34" height="34" viewBox="0 0 34 34" fill="none" xmlns="http://www.w3.org/2000/svg">
<g id="facebook-icon">
<path id="Ellipse 4" d="M34 17C34 26.3888 26.3888 34 17 34C7.61116 34 0 26.3888 0 17C0 7.61116 7.61116 0 17 0C26.3888 0 34 7.61116 34 17ZM2.45847 17C2.45847 25.0311 8.96893 31.5415 17 31.5415C25.0311 31.5415 31.5415 25.0311 31.5415 17C31.5415 8.96893 25.0311 2.45847 17 2.45847C8.96893 2.45847 2.45847 8.96893 2.45847 17Z" fill="#EFEFEF"/>
<path id="Vector" d="M18.4762 13.4762V11.5485C18.4762 10.6783 18.6685 10.2381 20.0193 10.2381H21.7143V7H18.886C15.4202 7 14.2768 8.58869 14.2768 11.3158V13.4762H12V16.7143H14.2768V26.4286H18.4762V16.7143H21.3298L21.7143 13.4762H18.4762Z" fill="white"/>
</g>
</svg>
