<svg width="34" height="34" viewBox="0 0 34 34" fill="none" xmlns="http://www.w3.org/2000/svg">
<g id="instagram-icon">
<path id="Ellipse 3" d="M34 17C34 26.3888 26.3888 34 17 34C7.61116 34 0 26.3888 0 17C0 7.61116 7.61116 0 17 0C26.3888 0 34 7.61116 34 17ZM2.45847 17C2.45847 25.0311 8.96893 31.5415 17 31.5415C25.0311 31.5415 31.5415 25.0311 31.5415 17C31.5415 8.96893 25.0311 2.45847 17 2.45847C8.96893 2.45847 2.45847 8.96893 2.45847 17Z" fill="#EFEFEF"/>
<path id="instagram-icon_2" d="M17 12.8462C16.1784 12.8462 15.3753 13.0898 14.6922 13.5462C14.0092 14.0026 13.4767 14.6514 13.1623 15.4104C12.848 16.1694 12.7657 17.0046 12.926 17.8104C13.0862 18.6161 13.4819 19.3563 14.0628 19.9372C14.6437 20.5181 15.3839 20.9138 16.1896 21.074C16.9954 21.2343 17.8306 21.152 18.5896 20.8377C19.3486 20.5233 19.9974 19.9909 20.4538 19.3078C20.9102 18.6247 21.1538 17.8216 21.1538 17C21.1527 15.8987 20.7147 14.8428 19.9359 14.0641C19.1572 13.2853 18.1013 12.8473 17 12.8462ZM17 19.7692C16.4523 19.7692 15.9169 19.6068 15.4615 19.3025C15.0061 18.9982 14.6512 18.5657 14.4416 18.0597C14.232 17.5537 14.1771 16.9969 14.284 16.4598C14.3908 15.9226 14.6546 15.4291 15.0419 15.0419C15.4291 14.6546 15.9226 14.3908 16.4598 14.284C16.9969 14.1771 17.5537 14.232 18.0597 14.4416C18.5657 14.6512 18.9982 15.0061 19.3025 15.4615C19.6068 15.9169 19.7692 16.4523 19.7692 17C19.7692 17.7344 19.4775 18.4388 18.9581 18.9581C18.4388 19.4775 17.7344 19.7692 17 19.7692ZM21.1538 8H12.8462C11.5613 8.00137 10.3295 8.51239 9.42092 9.42092C8.51239 10.3295 8.00137 11.5613 8 12.8462V21.1538C8.00137 22.4387 8.51239 23.6705 9.42092 24.5791C10.3295 25.4876 11.5613 25.9986 12.8462 26H21.1538C22.4387 25.9986 23.6705 25.4876 24.5791 24.5791C25.4876 23.6705 25.9986 22.4387 26 21.1538V12.8462C25.9986 11.5613 25.4876 10.3295 24.5791 9.42092C23.6705 8.51239 22.4387 8.00137 21.1538 8ZM24.6154 21.1538C24.6154 22.0719 24.2507 22.9524 23.6015 23.6015C22.9524 24.2507 22.0719 24.6154 21.1538 24.6154H12.8462C11.9281 24.6154 11.0476 24.2507 10.3985 23.6015C9.74931 22.9524 9.38462 22.0719 9.38462 21.1538V12.8462C9.38462 11.9281 9.74931 11.0476 10.3985 10.3985C11.0476 9.74931 11.9281 9.38462 12.8462 9.38462H21.1538C22.0719 9.38462 22.9524 9.74931 23.6015 10.3985C24.2507 11.0476 24.6154 11.9281 24.6154 12.8462V21.1538ZM22.5385 12.5C22.5385 12.7054 22.4776 12.9062 22.3634 13.0769C22.2493 13.2477 22.0872 13.3808 21.8974 13.4594C21.7076 13.538 21.4988 13.5586 21.2974 13.5185C21.096 13.4784 20.9109 13.3795 20.7657 13.2343C20.6205 13.0891 20.5216 12.904 20.4815 12.7026C20.4414 12.5012 20.462 12.2924 20.5406 12.1026C20.6192 11.9128 20.7523 11.7507 20.9231 11.6366C21.0938 11.5224 21.2946 11.4615 21.5 11.4615C21.7754 11.4615 22.0396 11.5709 22.2343 11.7657C22.4291 11.9604 22.5385 12.2246 22.5385 12.5Z" fill="white"/>
</g>
</svg>
