<svg width="63" height="48" viewBox="0 0 63 48" fill="none" xmlns="http://www.w3.org/2000/svg">
<g id="orders-icon">
<path id="Vector" d="M52 15.1818C54.5196 15.1818 56.9359 16.1779 58.7175 17.951C60.4991 19.7241 61.5 22.1289 61.5 24.6364C61.5 25.0221 61.346 25.3921 61.0719 25.6649C60.7978 25.9377 60.4261 26.0909 60.0385 26.0909H43.9615C43.5739 26.0909 43.2022 25.9377 42.9281 25.6649C42.654 25.3921 42.5 25.0221 42.5 24.6364C42.5 22.1289 43.5009 19.7241 45.2825 17.951C47.0641 16.1779 49.4804 15.1818 52 15.1818ZM52 15.1818V13M42.5 29H61.5" stroke="#F35500" stroke-width="2" stroke-linecap="round" stroke-linejoin="round"/>
<g id="Group 6">
<path id="Vector_2" d="M11.4091 30.8692H29.5909C35.6273 30.8692 40.5 35.4602 40.5 41.1476V47.9998H0.5V41.1476C0.5 35.4602 5.37273 30.8692 11.4091 30.8692ZM11.4091 10.3125H29.5909V18.8778C29.5909 21.1495 28.6331 23.3281 26.9282 24.9344C25.2234 26.5407 22.9111 27.4431 20.5 27.4431C18.0889 27.4431 15.7766 26.5407 14.0718 24.9344C12.3669 23.3281 11.4091 21.1495 11.4091 18.8778V10.3125ZM29.5909 10.3125C31.5909 10.3125 33.2273 11.8543 33.2273 13.7386C33.2273 15.623 31.5909 17.1647 29.5909 17.1647V10.3125ZM11.4091 17.1647C9.40909 17.1647 7.77273 15.623 7.77273 13.7386C7.77273 11.8543 9.40909 10.3125 11.4091 10.3125V17.1647Z" fill="#F35500"/>
<path id="Vector_3" d="M11.8454 10.7238H10.0273C7.29999 8.59957 7.77272 5.34475 7.77272 2.60385C7.77272 -0.137045 9.5909 1.71306 11.4091 1.71306C13.2273 1.71306 15.0454 3.42612 15.0454 3.42612C11.8454 3.42612 11.4091 0 11.4091 0H22.3182C26.3182 0 29.5909 3.08351 29.5909 6.85224H31.4091C31.4091 6.85224 32.3182 9.42183 30.9727 11.1349L11.8818 10.7238H11.8454Z" fill="#F35500"/>
</g>
</g>
</svg>
