<svg width="34" height="34" viewBox="0 0 34 34" fill="none" xmlns="http://www.w3.org/2000/svg">
<g id="pinterest-icon">
<path id="Ellipse 3" d="M34 17C34 26.3888 26.3888 34 17 34C7.61116 34 0 26.3888 0 17C0 7.61116 7.61116 0 17 0C26.3888 0 34 7.61116 34 17ZM2.45847 17C2.45847 25.0311 8.96893 31.5415 17 31.5415C25.0311 31.5415 31.5415 25.0311 31.5415 17C31.5415 8.96893 25.0311 2.45847 17 2.45847C8.96893 2.45847 2.45847 8.96893 2.45847 17Z" fill="#EFEFEF"/>
<path id="Vector" d="M26 15.7297C26 18.2256 25.192 20.507 23.7265 22.1558C22.3581 23.6919 20.5028 24.5766 18.6364 24.5766C16.8077 24.5766 15.5866 23.9285 14.8083 23.2495L13.7058 28.3177C13.6636 28.5119 13.5619 28.685 13.4173 28.8088C13.2727 28.9327 13.0936 29.0001 12.9091 29C12.8458 28.9999 12.7826 28.9921 12.7209 28.9768C12.6159 28.9507 12.5167 28.9025 12.429 28.8349C12.3412 28.7672 12.2667 28.6815 12.2097 28.5827C12.1527 28.4838 12.1143 28.3738 12.0967 28.2589C12.0791 28.1439 12.0827 28.0264 12.1073 27.9129L15.38 12.8733C15.4296 12.6448 15.5612 12.447 15.7457 12.3234C15.9302 12.1998 16.1526 12.1605 16.3639 12.2142C16.5752 12.2678 16.7581 12.4101 16.8724 12.6096C16.9867 12.8091 17.023 13.0495 16.9734 13.278L15.245 21.2181C15.5682 21.7013 16.5193 22.8072 18.6364 22.8072C21.4519 22.8072 24.3636 20.1598 24.3636 15.7297C24.3632 14.5087 24.1031 13.3041 23.6033 12.2092C23.1036 11.1142 22.3777 10.1582 21.4816 9.41509C20.5856 8.67196 19.5436 8.1616 18.436 7.92348C17.3285 7.68536 16.1851 7.72586 15.0944 8.04185C14.0036 8.35783 12.9947 8.94084 12.1456 9.74579C11.2965 10.5507 10.63 11.5561 10.1976 12.684C9.76518 13.812 9.5785 15.0324 9.65197 16.2508C9.72543 17.4692 10.0571 18.6531 10.6213 19.7108C10.723 19.9134 10.7476 20.151 10.6897 20.373C10.6319 20.5949 10.4961 20.7837 10.3115 20.899C10.1268 21.0144 9.90778 21.0472 9.70106 20.9905C9.49434 20.9338 9.31627 20.792 9.20477 20.5955C8.51487 19.3027 8.10921 17.8557 8.01917 16.3664C7.92913 14.877 8.15711 13.3852 8.68549 12.0064C9.21387 10.6275 10.0285 9.39858 11.0663 8.41456C12.1042 7.43054 13.3375 6.71783 14.6708 6.33156C16.0041 5.94528 17.4017 5.8958 18.7555 6.18692C20.1093 6.47804 21.3831 7.10198 22.4782 8.01047C23.5734 8.91896 24.4606 10.0877 25.0713 11.4262C25.682 12.7647 25.9997 14.2372 26 15.7297Z" fill="white"/>
</g>
</svg>
