<svg width="32" height="32" viewBox="0 0 32 32" fill="none" xmlns="http://www.w3.org/2000/svg">
<g id="quate icon">
<path id="Vector" d="M2.73333 20.3722L2.76667 20.5962L2.80133 20.5882C3.03826 21.6961 3.58405 22.7143 4.37555 23.525C5.16705 24.3357 6.17191 24.9057 7.27387 25.1691C8.37583 25.4325 9.52985 25.3785 10.6024 25.0134C11.6749 24.6482 12.6222 23.9868 13.3345 23.1058C14.0468 22.2247 14.4952 21.16 14.6276 20.0347C14.76 18.9095 14.5711 17.7698 14.0828 16.7474C13.5944 15.725 12.8266 14.8619 11.8681 14.2577C10.9096 13.6535 9.79967 13.3331 8.66667 13.3335C8.36934 13.3335 8.084 13.3788 7.8 13.4202C7.892 13.1108 7.98667 12.7962 8.13867 12.5135C8.29067 12.1028 8.528 11.7468 8.764 11.3882C8.96134 11.0002 9.30934 10.7375 9.56533 10.4055C9.83334 10.0828 10.1987 9.86816 10.488 9.60016C10.772 9.32016 11.144 9.18016 11.44 8.98283C11.7493 8.80549 12.0187 8.6095 12.3067 8.51616L13.0253 8.22016L13.6573 7.9575L13.012 5.37216L12.216 5.56416C11.9613 5.62816 11.6507 5.70283 11.2973 5.79216C10.936 5.85883 10.5507 6.0415 10.1213 6.20816C9.69867 6.39883 9.20667 6.52549 8.75067 6.83083C8.292 7.12149 7.76267 7.36416 7.296 7.7535C6.844 8.15483 6.29867 8.50283 5.896 9.01216C5.456 9.4895 5.02134 9.99083 4.684 10.5615C4.29333 11.1055 4.028 11.7028 3.748 12.2935C3.49467 12.8842 3.29067 13.4882 3.124 14.0748C2.808 15.2508 2.66667 16.3682 2.612 17.3242C2.56667 18.2815 2.59333 19.0775 2.64933 19.6535C2.66807 19.894 2.69609 20.1338 2.73333 20.3722ZM17.4 20.3722L17.4333 20.5962L17.468 20.5882C17.7049 21.6961 18.2507 22.7143 19.0422 23.525C19.8337 24.3357 20.8386 24.9057 21.9405 25.1691C23.0425 25.4325 24.1965 25.3785 25.2691 25.0134C26.3416 24.6482 27.2888 23.9868 28.0012 23.1058C28.7135 22.2247 29.1618 21.16 29.2942 20.0347C29.4267 18.9095 29.2378 17.7698 28.7494 16.7474C28.2611 15.725 27.4932 14.8619 26.5348 14.2577C25.5763 13.6535 24.4663 13.3331 23.3333 13.3335C23.036 13.3335 22.7507 13.3788 22.4667 13.4202C22.5587 13.1108 22.6533 12.7962 22.8053 12.5135C22.9573 12.1028 23.1947 11.7468 23.4307 11.3882C23.628 11.0002 23.976 10.7375 24.232 10.4055C24.5 10.0828 24.8653 9.86816 25.1547 9.60016C25.4387 9.32016 25.8107 9.18016 26.1067 8.98283C26.416 8.80549 26.6853 8.6095 26.9733 8.51616L27.692 8.22016C28.0933 8.05616 28.3227 7.96016 28.3227 7.96016L27.6773 5.37483L26.8813 5.56683C26.6267 5.63083 26.316 5.7055 25.9627 5.79483C25.6013 5.8615 25.216 6.04416 24.7867 6.21083C24.364 6.4015 23.872 6.52816 23.416 6.8335C22.9573 7.12416 22.428 7.36683 21.9613 7.75616C21.5093 8.1575 20.964 8.5055 20.5613 9.01483C20.1213 9.49216 19.6867 9.9935 19.3493 10.5642C18.9587 11.1082 18.6933 11.7055 18.4133 12.2962C18.16 12.8868 17.956 13.4908 17.7893 14.0775C17.4733 15.2535 17.332 16.3708 17.2773 17.3268C17.232 18.2842 17.2587 19.0802 17.3147 19.6562C17.3346 19.8958 17.363 20.1346 17.4 20.3722Z" fill="#F35500"/>
</g>
</svg>
