<svg width="51" height="50" viewBox="0 0 51 50" fill="none" xmlns="http://www.w3.org/2000/svg">
<g id="replace-icon">
<g id="Group">
<path id="Vector" d="M21.9286 36V43.1429C21.9193 43.4113 21.8061 43.6657 21.6129 43.8522C21.4196 44.0388 21.1615 44.143 20.8929 44.1429H13.3929C12.1597 43.9351 11.0433 43.2881 10.25 42.3214" stroke="#F35500" stroke-width="2.28571" stroke-linecap="round" stroke-linejoin="round"/>
<path id="Vector_2" d="M37.4643 22.7501L42.75 19.1787C42.8681 19.1265 42.9959 19.0996 43.125 19.0996C43.2541 19.0996 43.3819 19.1265 43.5 19.1787C43.638 19.1948 43.7705 19.2417 43.888 19.3159C44.0054 19.3901 44.1047 19.4896 44.1786 19.6073L48.2857 25.7501C48.5311 26.244 48.6588 26.788 48.6588 27.3394C48.6588 27.8909 48.5311 28.4348 48.2857 28.9287M10.25 42.3573C10.25 42.3573 6.35713 38.9644 15.3928 29.9287H19.4286L13.3928 19.9644H2.28571L5.32142 23.8573C5.32142 23.8573 3.28571 24.2144 3.28571 27.0358C4.35346 32.6248 6.74119 37.8778 10.25 42.3573Z" stroke="#F35500" stroke-width="2.28571" stroke-linecap="round" stroke-linejoin="round"/>
<path id="Vector_3" d="M16.0357 15.2858L11.2143 13.0715C10.9765 12.9486 10.7933 12.7412 10.7008 12.49C10.6082 12.2389 10.6131 11.9622 10.7143 11.7144L14.7857 3.57152C15.0577 3.08942 15.4381 2.67714 15.8967 2.36724C16.3554 2.05733 16.8798 1.85828 17.4286 1.7858M17.4286 1.7858C17.4286 1.7858 21.8215 1.7858 27.3929 12.5001L24.5 16.0715H36.5L40.75 4.85723L35.75 6.39295C35.6773 5.61804 35.3967 4.87715 34.9378 4.24852C34.4789 3.61989 33.8588 3.12687 33.1429 2.82152C30.6812 2.00659 28.0898 1.65541 25.5 1.7858H17.4286ZM48.4286 28.5715C48.4286 28.5715 47.2857 33.2144 35.4643 32.1429V29.0358L28.5357 38.1072L35.1072 48.2144L35.4643 43.4644C35.4643 43.4644 36.7857 45.0715 39.0357 43.4644C42.8092 38.9356 45.9675 33.928 48.4286 28.5715Z" stroke="#F35500" stroke-width="2.28571" stroke-linecap="round" stroke-linejoin="round"/>
</g>
</g>
</svg>
