<svg width="20" height="20" viewBox="0 0 20 20" fill="none" xmlns="http://www.w3.org/2000/svg">
<g id="Frame" clip-path="url(#clip0_252_52)">
<path id="Vector" d="M19.955 0.857746C20.0005 0.744166 20.0116 0.619741 19.987 0.499895C19.9624 0.38005 19.9032 0.270055 19.8167 0.183547C19.7302 0.0970387 19.6202 0.0378218 19.5004 0.0132375C19.3805 -0.0113468 19.2561 -0.000217461 19.1425 0.0452459L0.958772 7.319H0.957522L0.392522 7.544C0.285509 7.58668 0.192379 7.65812 0.123416 7.75041C0.0544539 7.8427 0.0123442 7.95226 0.0017385 8.06698C-0.00886718 8.1817 0.012444 8.29713 0.0633179 8.4005C0.114192 8.50387 0.192649 8.59116 0.290022 8.65275L0.802522 8.97775L0.803772 8.98025L7.04752 12.9527L11.02 19.1965L11.0225 19.199L11.3475 19.7115C11.4093 19.8085 11.4966 19.8866 11.5999 19.9371C11.7032 19.9877 11.8185 20.0087 11.933 19.998C12.0475 19.9873 12.1568 19.9452 12.2489 19.8763C12.341 19.8075 12.4123 19.7145 12.455 19.6077L19.955 0.857746ZM17.6638 3.22025L8.29627 12.5877L8.02752 12.1652C7.97828 12.0877 7.91255 12.022 7.83502 11.9727L7.41252 11.704L16.78 2.3365L18.2525 1.74775L17.6638 3.22025Z" fill="#F35500"/>
</g>
<defs>
<clipPath id="clip0_252_52">
<rect width="20" height="20" fill="white"/>
</clipPath>
</defs>
</svg>
