<svg width="94" height="52" viewBox="0 0 94 52" fill="none" xmlns="http://www.w3.org/2000/svg">
<g id="supplier-icon">
<g id="Group">
<path id="Vector" d="M30.6363 49.9999C32.8063 49.9999 34.8874 49.2219 36.4218 47.837C37.9561 46.4522 38.8182 44.5739 38.8182 42.6153C38.8182 40.6568 37.9561 38.7785 36.4218 37.3936C34.8874 36.0087 32.8063 35.2307 30.6363 35.2307C28.4664 35.2307 26.3853 36.0087 24.8509 37.3936C23.3165 38.7785 22.4545 40.6568 22.4545 42.6153C22.4545 44.5739 23.3165 46.4522 24.8509 47.837C26.3853 49.2219 28.4664 49.9999 30.6363 49.9999ZM71.5454 49.9999C73.7154 49.9999 75.7965 49.2219 77.3308 47.837C78.8652 46.4522 79.7272 44.5739 79.7272 42.6153C79.7272 40.6568 78.8652 38.7785 77.3308 37.3936C75.7965 36.0087 73.7154 35.2307 71.5454 35.2307C69.3755 35.2307 67.2944 36.0087 65.76 37.3936C64.2256 38.7785 63.3636 40.6568 63.3636 42.6153C63.3636 44.5739 64.2256 46.4522 65.76 47.837C67.2944 49.2219 69.3755 49.9999 71.5454 49.9999Z" stroke="#F35500" stroke-width="4" stroke-miterlimit="1.5" stroke-linecap="round" stroke-linejoin="round"/>
<path id="Vector_2" d="M39.0227 42.6154H59.2727V4.21538C59.2727 3.62783 59.0141 3.06434 58.5538 2.64887C58.0935 2.23341 57.4692 2 56.8182 2H2M21.0227 42.6154H12.6364C12.314 42.6154 11.9948 42.5581 11.6971 42.4467C11.3993 42.3354 11.1287 42.1722 10.9007 41.9665C10.6728 41.7608 10.492 41.5166 10.3687 41.2478C10.2453 40.979 10.1818 40.6909 10.1818 40.4V22.3077" stroke="#F35500" stroke-width="4" stroke-linecap="round"/>
<path id="Vector_3" d="M6.09093 13.0769H22.4546" stroke="#F35500" stroke-width="4" stroke-linecap="round" stroke-linejoin="round"/>
<path id="Vector_4" d="M59.2727 13.0769H82.2227C82.6972 13.077 83.1614 13.2012 83.5593 13.4345C83.9572 13.6678 84.2716 14.0001 84.4645 14.3914L91.7873 29.264C91.9268 29.5464 91.9992 29.852 92 30.1612V40.4C92 40.6909 91.9365 40.979 91.8132 41.2478C91.6898 41.5166 91.509 41.7608 91.2811 41.9665C91.0531 42.1722 90.7826 42.3354 90.4848 42.4467C90.187 42.5581 89.8678 42.6154 89.5454 42.6154H81.7727M59.2727 42.6154H63.3636" stroke="#F35500" stroke-width="4" stroke-linecap="round"/>
</g>
</g>
</svg>
