<svg width="25" height="25" viewBox="0 0 25 25" fill="none" xmlns="http://www.w3.org/2000/svg">
<path d="M12.5 0C10.0277 0 7.61099 0.733112 5.55538 2.10663C3.49976 3.48015 1.89761 5.43238 0.951511 7.71646C0.00541604 10.0005 -0.242126 12.5139 0.24019 14.9386C0.722505 17.3634 1.91301 19.5907 3.66117 21.3388C5.40933 23.087 7.63661 24.2775 10.0614 24.7598C12.4861 25.2421 14.9995 24.9946 17.2835 24.0485C19.5676 23.1024 21.5199 21.5002 22.8934 19.4446C24.2669 17.389 25 14.9723 25 12.5C24.9962 9.18595 23.678 6.00873 21.3347 3.66534C18.9913 1.32196 15.814 0.003781 12.5 0ZM1.78572 12.5C1.78816 11.2825 1.99956 10.0745 2.41072 8.92857H7.14286L11.6071 12.5L9.10715 15.7973C8.97823 15.9693 8.91566 16.1819 8.93091 16.3963C8.94616 16.6107 9.03822 16.8123 9.19018 16.9643L11.6071 19.6429V23.1696C8.93148 22.9438 6.4379 21.7224 4.61935 19.7468C2.8008 17.7712 1.78962 15.1852 1.78572 12.5ZM17.3527 22.0402L19.6259 15.1652C19.6583 15.0026 19.6448 14.8342 19.5869 14.6789C19.5291 14.5236 19.4291 14.3874 19.2982 14.2857L11.6071 8.03571L13.3929 6.25H18.1071C18.2945 6.24986 18.477 6.19081 18.6289 6.0812C18.7808 5.9716 18.8944 5.817 18.9536 5.63928L19.3955 4.3125C20.7501 5.44919 21.8016 6.90413 22.4557 8.54698C23.1099 10.1898 23.3464 11.9693 23.144 13.726C22.9415 15.4827 22.3065 17.1617 21.2958 18.6127C20.2851 20.0637 18.9303 21.2414 17.3527 22.0402Z" fill="white"/>
</svg>
