<svg width="34" height="34" viewBox="0 0 34 34" fill="none" xmlns="http://www.w3.org/2000/svg">
<g id="twitter-x-icon">
<path id="twitter-icon" d="M22.3875 8H24.9949L19.2999 15.201L26 25H20.7544L16.6458 19.0559L11.9442 25H9.33575L15.4271 17.2972L9 8H14.3794L18.0929 13.4318L22.3875 8ZM21.4737 23.2742H22.9188L13.5932 9.63552H12.0441L21.4737 23.2742Z" fill="white"/>
<path id="Ellipse 3" d="M34 17C34 26.3888 26.3888 34 17 34C7.61116 34 0 26.3888 0 17C0 7.61116 7.61116 0 17 0C26.3888 0 34 7.61116 34 17ZM2.45847 17C2.45847 25.0311 8.96893 31.5415 17 31.5415C25.0311 31.5415 31.5415 25.0311 31.5415 17C31.5415 8.96893 25.0311 2.45847 17 2.45847C8.96893 2.45847 2.45847 8.96893 2.45847 17Z" fill="#EFEFEF"/>
</g>
</svg>
