<svg width="27" height="44" viewBox="0 0 27 44" fill="none" xmlns="http://www.w3.org/2000/svg">
<path d="M13.0227 0C10.7827 0 8.80845 1.15762 8.17567 2.83962C7.50493 2.60216 6.79622 2.47354 6.0622 2.47354C4.71962 2.47354 3.43203 2.89051 2.48268 3.63271C1.53334 4.37492 1 5.38157 1 6.4312C1.003 7.30766 1.37713 8.15868 2.06397 8.85139C2.75082 9.54409 3.71172 10.0395 4.79665 10.2602V17.3148H21.2488V10.2602C23.4762 9.80511 25.0455 8.23194 25.0455 6.4312C25.0455 5.38157 24.5121 4.37492 23.5628 3.63271C22.6134 2.89051 21.3258 2.47354 19.9833 2.47354C19.2492 2.47354 18.5405 2.60216 17.8698 2.83962C17.237 1.15762 15.2628 0 13.0227 0ZM12.39 8.90474H13.6555V15.8307H12.39V8.90474ZM8.5933 10.8836H9.85885V15.8307H8.5933V10.8836ZM16.1866 10.8836H17.4522V15.8307H16.1866V10.8836ZM4.79665 18.3042V19.2936C4.79665 19.556 4.92999 19.8077 5.16732 19.9932C5.40466 20.1788 5.72656 20.283 6.0622 20.283H19.9833C20.3189 20.283 20.6408 20.1788 20.8781 19.9932C21.1155 19.8077 21.2488 19.556 21.2488 19.2936V18.3042H4.79665Z" fill="white"/>
<path d="M13.0219 40.0386C17.8335 40.0386 21.7427 37.0982 21.9091 33.4246C21.7427 29.751 17.8335 26.8105 13.0219 26.8105C8.21079 26.8105 4.30049 29.751 4.13635 33.4246C4.29993 37.0982 8.21023 40.0386 13.0219 40.0386Z" fill="#716F6F"/>
<path d="M13.023 23.2832C6.38333 23.2832 1 27.8238 1 33.4247C1 39.0251 6.38387 43.5662 13.023 43.5662C19.6621 43.5662 25.0455 39.0251 25.0455 33.4247C25.0455 27.8238 19.6621 23.2832 13.023 23.2832ZM13.0225 40.8004C8.19325 40.8004 4.2783 37.6099 4.2783 33.6732C4.2783 33.5893 4.29197 33.5077 4.29525 33.4247C4.29197 33.3417 4.2783 33.2597 4.2783 33.1763C4.2783 29.2395 8.1938 26.0491 13.0225 26.0491C17.8517 26.0491 21.7661 29.2395 21.7661 33.1763C21.7661 33.2597 21.7546 33.3417 21.7518 33.4247C21.7551 33.5077 21.7661 33.5893 21.7661 33.6732C21.7655 37.6099 17.8517 40.8004 13.0225 40.8004Z" fill="#716F6F"/>
<path d="M0.969399 18.0001C0.437156 18.7666 0.305935 19.7081 0.511582 20.7955C0.756747 22.0922 1.49866 23.5534 2.57097 24.9292C4.7157 27.681 8.17767 30.0596 11.2576 30.4203L11.4729 30.4462L11.6115 30.6029L22.9448 43.521C24.0745 43.7758 24.8038 43.6171 25.1831 43.2625C25.5653 42.9051 25.7415 42.215 25.4584 41.1198L0.969515 18L0.969399 18.0001ZM22.8629 18.1275L16.5295 24.1077C15.829 24.769 15.8229 25.4966 16.1846 26.2917L16.3342 26.6207L16.0605 26.8688L13.9336 28.784L15.6611 30.4151L17.6804 28.4016L17.9431 28.1398L18.2915 28.2827C19.1767 28.6429 20.0162 28.6281 20.6666 28.014L27 22.0338L26.1773 21.257L22.0583 25.1445L21.2886 24.4161L25.4056 20.5287L24.5283 19.7L20.4112 23.5875L19.6396 22.8589L23.7566 18.9715L22.8629 18.1275ZM10.9529 31.4693L0.130233 41.2198C-0.136822 42.2642 0.0342682 42.9167 0.394778 43.2539C0.755404 43.5911 1.45296 43.7459 2.54546 43.4967L12.6568 33.4121L10.9529 31.4693Z" fill="white"/>
</svg>
